<svg xmlns="http://www.w3.org/2000/svg" width="342.99407958984375" height="341.9039306640625" viewBox="-162.52931213378906 -159.6355438232422 342.99407958984375 341.9039306640625"><title>Neo4j Graph Visualization</title><desc>Created using Neo4j (http://www.neo4j.com/)</desc><g class="layer relationships"><g class="relationship" transform="translate(50.230055735441134 153.2683987449593) rotate(254.92465506755173)"><path class="b-outline" fill="#A5ABB6" stroke="none" d="M 25 0.5 L 47.728889486589665 0.5 L 47.728889486589665 -0.5 L 25 -0.5 Z M 93.29138948658967 0.5 L 116.02027897317933 0.5 L 116.02027897317933 3.5 L 123.02027897317933 0 L 116.02027897317933 -3.5 L 116.02027897317933 -0.5 L 93.29138948658967 -0.5 Z"/><text text-anchor="middle" pointer-events="none" font-size="8px" fill="#000000" x="70.51013948658967" y="3" transform="rotate(180 70.51013948658967 0)" font-family="Helvetica Neue, Helvetica, Arial, sans-serif">ACTED_IN</text></g><g class="relationship" transform="translate(142.83311440362226 79.08030994355633) rotate(207.66853601329592)"><path class="b-outline" fill="#A5ABB6" stroke="none" d="M 25 0.5 L 47.73314222641565 0.5 L 47.73314222641565 -0.5 L 25 -0.5 Z M 93.29564222641565 0.5 L 116.0287844528313 0.5 L 116.0287844528313 3.5 L 123.0287844528313 0 L 116.0287844528313 -3.5 L 116.0287844528313 -0.5 L 93.29564222641565 -0.5 Z"/><text text-anchor="middle" pointer-events="none" font-size="8px" fill="#000000" x="70.51439222641565" y="3" transform="rotate(180 70.51439222641565 0)" font-family="Helvetica Neue, Helvetica, Arial, sans-serif">ACTED_IN</text></g><g class="relationship" transform="translate(151.46476212393486 -39.08308332807876) rotate(520.5206727600598)"><path class="b-outline" fill="#A5ABB6" stroke="none" d="M 25 0.5 L 47.8271551209329 0.5 L 47.8271551209329 -0.5 L 25 -0.5 Z M 93.3896551209329 0.5 L 116.2168102418658 0.5 L 116.2168102418658 3.5 L 123.2168102418658 0 L 116.2168102418658 -3.5 L 116.2168102418658 -0.5 L 93.3896551209329 -0.5 Z"/><text text-anchor="middle" pointer-events="none" font-size="8px" fill="#000000" x="70.6084051209329" y="3" transform="rotate(180 70.6084051209329 0)" font-family="Helvetica Neue, Helvetica, Arial, sans-serif">ACTED_IN</text></g><g class="relationship" transform="translate(71.457654561742 -125.75594917340035) rotate(473.69403415063823)"><path class="b-outline" fill="#A5ABB6" stroke="none" d="M 25 0.5 L 48.0321605985481 0.5 L 48.0321605985481 -0.5 L 25 -0.5 Z M 93.5946605985481 0.5 L 116.6268211970962 0.5 L 116.6268211970962 3.5 L 123.6268211970962 0 L 116.6268211970962 -3.5 L 116.6268211970962 -0.5 L 93.5946605985481 -0.5 Z"/><text text-anchor="middle" pointer-events="none" font-size="8px" fill="#000000" x="70.8134105985481" y="3" transform="rotate(180 70.8134105985481 0)" font-family="Helvetica Neue, Helvetica, Arial, sans-serif">ACTED_IN</text></g><g class="relationship" transform="translate(-34.53404578640969 -130.63554322787138) rotate(431.83136545464095)"><path class="b-outline" fill="#A5ABB6" stroke="none" d="M 25 0.5 L 47.90645144457116 0.5 L 47.90645144457116 -0.5 L 25 -0.5 Z M 93.46895144457116 0.5 L 116.37540288914232 0.5 L 116.37540288914232 3.5 L 123.37540288914232 0 L 116.37540288914232 -3.5 L 116.37540288914232 -0.5 L 93.46895144457116 -0.5 Z"/><text text-anchor="middle" pointer-events="none" font-size="8px" fill="#000000" x="70.68770144457116" y="3" font-family="Helvetica Neue, Helvetica, Arial, sans-serif">ACTED_IN</text></g><g class="relationship" transform="translate(-117.65485462215483 -62.260894318232516) rotate(389.2982792432469)"><path class="b-outline" fill="#A5ABB6" stroke="none" d="M 25 0.5 L 47.23702778670733 0.5 L 47.23702778670733 -0.5 L 25 -0.5 Z M 94.12765278670733 0.5 L 116.36468057341466 0.5 L 116.36468057341466 3.5 L 123.36468057341466 0 L 116.36468057341466 -3.5 L 116.36468057341466 -0.5 L 94.12765278670733 -0.5 Z"/><text text-anchor="middle" pointer-events="none" font-size="8px" fill="#000000" x="70.68234028670733" y="3" font-family="Helvetica Neue, Helvetica, Arial, sans-serif">DIRECTED</text></g><g class="relationship" transform="translate(-133.52931828701654 41.723014726553494) rotate(347.8097221146604)"><path class="b-outline" fill="#A5ABB6" stroke="none" d="M 25 0.5 L 52.91921244726181 0.5 L 52.91921244726181 -0.5 L 25 -0.5 Z M 88.69264994726181 0.5 L 116.61186239452363 0.5 L 116.61186239452363 3.5 L 123.61186239452363 0 L 116.61186239452363 -3.5 L 116.61186239452363 -0.5 L 88.69264994726181 -0.5 Z"/><text text-anchor="middle" pointer-events="none" font-size="8px" fill="#000000" x="70.80593119726181" y="3" font-family="Helvetica Neue, Helvetica, Arial, sans-serif">WROTE</text></g><g class="relationship" transform="translate(-65.89406703367722 136.57002426380336) rotate(301.590071853431)"><path class="b-outline" fill="#A5ABB6" stroke="none" d="M 25 0.5 L 52.706441524032 0.5 L 52.706441524032 -0.5 L 25 -0.5 Z M 88.479879024032 0.5 L 116.186320548064 0.5 L 116.186320548064 3.5 L 123.186320548064 0 L 116.186320548064 -3.5 L 116.186320548064 -0.5 L 88.479879024032 -0.5 Z"/><text text-anchor="middle" pointer-events="none" font-size="8px" fill="#000000" x="70.593160274032" y="3" font-family="Helvetica Neue, Helvetica, Arial, sans-serif">WROTE</text></g></g><g class="layer nodes"><g class="node" aria-label="graph-node4" transform="translate(50.230055735441134,153.2683987449593)"><circle class="b-outline" cx="0" cy="0" r="25" fill="#C990C0" stroke="#b261a5" stroke-width="2px"/><text class="caption" text-anchor="middle" pointer-events="none" x="0" y="0" font-size="10px" fill="#FFFFFF" font-family="Helvetica Neue, Helvetica, Arial, sans-serif"> Chris</text><text class="caption" text-anchor="middle" pointer-events="none" x="0" y="10" font-size="10px" fill="#FFFFFF" font-family="Helvetica Neue, Helvetica, Arial, sans-serif"> Evans</text></g><g class="node" aria-label="graph-node0" transform="translate(11.731604960574565,10.342290999617656)"><circle class="b-outline" cx="0" cy="0" r="25" fill="#F79767" stroke="#f36924" stroke-width="2px"/><text class="caption" text-anchor="middle" pointer-events="none" x="0" y="-5" font-size="10px" fill="#FFFFFF" font-family="Helvetica Neue, Helvetica, Arial, sans-serif"> Captain</text><text class="caption" text-anchor="middle" pointer-events="none" x="0" y="5" font-size="10px" fill="#FFFFFF" font-family="Helvetica Neue, Helvetica, Arial, sans-serif"> America:</text><text class="caption" text-anchor="middle" pointer-events="none" x="0" y="15" font-size="10px" fill="#FFFFFF" font-family="Helvetica Neue, Helvetica, Arial, sans-serif"> Pi</text></g><g class="node" aria-label="graph-node5" transform="translate(142.83311440362226,79.08030994355633)"><circle class="b-outline" cx="0" cy="0" r="25" fill="#C990C0" stroke="#b261a5" stroke-width="2px"/><text class="caption" text-anchor="middle" pointer-events="none" x="0" y="0" font-size="10px" fill="#FFFFFF" font-family="Helvetica Neue, Helvetica, Arial, sans-serif"> Hayley</text><text class="caption" text-anchor="middle" pointer-events="none" x="0" y="10" font-size="10px" fill="#FFFFFF" font-family="Helvetica Neue, Helvetica, Arial, sans-serif"> Atwell</text></g><g class="node" aria-label="graph-node6" transform="translate(151.46476212393486,-39.08308332807876)"><circle class="b-outline" cx="0" cy="0" r="25" fill="#C990C0" stroke="#b261a5" stroke-width="2px"/><text class="caption" text-anchor="middle" pointer-events="none" x="0" y="0" font-size="10px" fill="#FFFFFF" font-family="Helvetica Neue, Helvetica, Arial, sans-serif"> Sebastian</text><text class="caption" text-anchor="middle" pointer-events="none" x="0" y="10" font-size="10px" fill="#FFFFFF" font-family="Helvetica Neue, Helvetica, Arial, sans-serif"> Stan</text></g><g class="node" aria-label="graph-node7" transform="translate(71.457654561742,-125.75594917340035)"><circle class="b-outline" cx="0" cy="0" r="25" fill="#C990C0" stroke="#b261a5" stroke-width="2px"/><text class="caption" text-anchor="middle" pointer-events="none" x="0" y="0" font-size="10px" fill="#FFFFFF" font-family="Helvetica Neue, Helvetica, Arial, sans-serif"> Tommy</text><text class="caption" text-anchor="middle" pointer-events="none" x="0" y="10" font-size="10px" fill="#FFFFFF" font-family="Helvetica Neue, Helvetica, Arial, sans-serif"> J…</text></g><g class="node" aria-label="graph-node8" transform="translate(-34.53404578640969,-130.63554322787138)"><circle class="b-outline" cx="0" cy="0" r="25" fill="#C990C0" stroke="#b261a5" stroke-width="2px"/><text class="caption" text-anchor="middle" pointer-events="none" x="0" y="0" font-size="10px" fill="#FFFFFF" font-family="Helvetica Neue, Helvetica, Arial, sans-serif"> Dominic</text><text class="caption" text-anchor="middle" pointer-events="none" x="0" y="10" font-size="10px" fill="#FFFFFF" font-family="Helvetica Neue, Helvetica, Arial, sans-serif"> Cooper</text></g><g class="node" aria-label="graph-node1" transform="translate(-117.65485462215483,-62.260894318232516)"><circle class="b-outline" cx="0" cy="0" r="25" fill="#C990C0" stroke="#b261a5" stroke-width="2px"/><text class="caption" text-anchor="middle" pointer-events="none" x="0" y="0" font-size="10px" fill="#FFFFFF" font-family="Helvetica Neue, Helvetica, Arial, sans-serif"> Joe</text><text class="caption" text-anchor="middle" pointer-events="none" x="0" y="10" font-size="10px" fill="#FFFFFF" font-family="Helvetica Neue, Helvetica, Arial, sans-serif"> Johns…</text></g><g class="node" aria-label="graph-node2" transform="translate(-133.52931828701654,41.723014726553494)"><circle class="b-outline" cx="0" cy="0" r="25" fill="#C990C0" stroke="#b261a5" stroke-width="2px"/><text class="caption" text-anchor="middle" pointer-events="none" x="0" y="5" font-size="10px" fill="#FFFFFF" font-family="Helvetica Neue, Helvetica, Arial, sans-serif"> Christop…</text></g><g class="node" aria-label="graph-node3" transform="translate(-65.89406703367722,136.57002426380336)"><circle class="b-outline" cx="0" cy="0" r="25" fill="#C990C0" stroke="#b261a5" stroke-width="2px"/><text class="caption" text-anchor="middle" pointer-events="none" x="0" y="0" font-size="10px" fill="#FFFFFF" font-family="Helvetica Neue, Helvetica, Arial, sans-serif"> Stephen</text><text class="caption" text-anchor="middle" pointer-events="none" x="0" y="10" font-size="10px" fill="#FFFFFF" font-family="Helvetica Neue, Helvetica, Arial, sans-serif"> McFre…</text></g></g></svg>