<svg xmlns="http://www.w3.org/2000/svg" width="430.9462890625" height="489.0605163574219" viewBox="-215.50099182128906 -295.2228698730469 430.9462890625 489.0605163574219"><title>Neo4j Graph Visualization</title><desc>Created using Neo4j (http://www.neo4j.com/)</desc><g class="layer relationships"><g class="relationship" transform="translate(186.445314916113 -1.3045592906245687) rotate(486.1564467052834)"><path class="b-outline" fill="#A5ABB6" stroke="none" d="M 25 0.5 L 75.50379590245255 0.5 L 75.50379590245255 -0.5 L 25 -0.5 Z M 94.83973340245255 0.5 L 145.3435293049051 0.5 L 145.3435293049051 3.5 L 152.3435293049051 0 L 145.3435293049051 -3.5 L 145.3435293049051 -0.5 L 94.83973340245255 -0.5 Z"/><text text-anchor="middle" pointer-events="none" font-size="8px" fill="#000000" x="85.17176465245255" y="3" transform="rotate(180 85.17176465245255 0)" font-family="Helvetica Neue, Helvetica, Arial, sans-serif">trek</text></g><g class="relationship" transform="translate(131.9081558312112 -183.52157589459958) rotate(433.3376720043743)"><path class="b-outline" fill="#A5ABB6" stroke="none" d="M 25 0.5 L 81.93374372289028 0.5 L 81.93374372289028 -0.5 L 25 -0.5 Z M 101.26968122289028 0.5 L 158.20342494578057 0.5 L 158.20342494578057 3.5 L 165.20342494578057 0 L 158.20342494578057 -3.5 L 158.20342494578057 -0.5 L 101.26968122289028 -0.5 Z"/><text text-anchor="middle" pointer-events="none" font-size="8px" fill="#000000" x="91.60171247289028" y="3" font-family="Helvetica Neue, Helvetica, Arial, sans-serif">trek</text></g><g class="relationship" transform="translate(-0.1381009595878236 -144.5570450232496) rotate(343.55959586888434)"><path class="b-outline" fill="#A5ABB6" stroke="none" d="M 21.40063509461097,12.933012701892217 L 21.90063509461097,12.06698729810778 A 90.97575951142866 90.97575951142866 0 0 0 55.591881313863624,23.48736353613627 L 55.462213437499486,24.478921019008155 A 91.97575951142866 91.97575951142866 0 0 1 21.40063509461097,12.933012701892217 Z M 74.86191534709532,24.95130320979783 L 74.78066132389976,23.954609784659226 A 90.97575951142866 90.97575951142866 0 0 0 108.98782081895794,14.187557798308454 L 107.61604971667634,11.519554042136972 L 115.44179143373833,11.431425852346642 L 110.8168489553334,17.74489613987043 L 109.4450778530518,15.076892383698947 A 91.97575951142866 91.97575951142866 0 0 1 74.86191534709532,24.95130320979783"/><text text-anchor="middle" pointer-events="none" font-size="8px" fill="#000000" x="65.16174275526414" y="27.728321042872423" font-family="Helvetica Neue, Helvetica, Arial, sans-serif">trek</text></g><g class="relationship" transform="translate(-0.1381009595878236 -144.5570450232496) rotate(343.55959586888434)"><path class="b-outline" fill="#A5ABB6" stroke="none" d="M 25 0.5 L 54.33171865925034 0.5 L 54.33171865925034 -0.5 L 25 -0.5 Z M 76.34343740925034 0.5 L 105.67515606850068 0.5 L 105.67515606850068 3.5 L 112.67515606850068 0 L 105.67515606850068 -3.5 L 105.67515606850068 -0.5 L 76.34343740925034 -0.5 Z"/><text text-anchor="middle" pointer-events="none" font-size="8px" fill="#000000" x="65.33757803425034" y="3" font-family="Helvetica Neue, Helvetica, Arial, sans-serif">road</text></g><g class="relationship" transform="translate(-0.1381009595878236 -144.5570450232496) rotate(343.55959586888434)"><path class="b-outline" fill="#A5ABB6" stroke="none" d="M 21.40063509461097,-12.933012701892217 L 21.90063509461097,-12.06698729810778 A 90.97575951142866 90.97575951142866 0 0 1 35.19215327945582,-18.367758787735482 L 34.83825283670299,-19.303041887454143 A 91.97575951142866 91.97575951142866 0 0 0 21.40063509461097,-12.933012701892217 Z M 95.7133493304311,-20.78534875898484 L 95.40538955243562,-19.833949381679503 A 90.97575951142866 90.97575951142866 0 0 1 108.98782081895794,-14.187557798308454 L 107.61604971667634,-11.519554042136972 L 115.44179143373833,-11.431425852346642 L 110.8168489553334,-17.74489613987043 L 109.4450778530518,-15.076892383698947 A 91.97575951142866 91.97575951142866 0 0 0 95.7133493304311,-20.78534875898484"/><text text-anchor="middle" pointer-events="none" font-size="8px" fill="#000000" x="65.1617427552641" y="-21.728321042872423" font-family="Helvetica Neue, Helvetica, Arial, sans-serif">PublicTransport</text></g><g class="relationship" transform="translate(-44.8234300412152 59.947145034318225) rotate(392.903703302931)"><path class="b-outline" fill="#A5ABB6" stroke="none" d="M 24.018736134675446,6.953439040707552 L 24.277555179777966,5.987513214418485 A 192.47625057028077 192.47625057028077 0 0 0 48.78273740752465,10.87445726832837 L 48.65123371771995,11.865772949414747 A 193.47625057028077 193.47625057028077 0 0 1 24.018736134675446,6.953439040707552 Z M 95.12094582349647,12.399995241233654 L 95.01226648324553,11.40591838253377 A 192.47625057028077 192.47625057028077 0 0 0 119.62331943020763,7.083621418772054 L 118.91368520669144,4.168759626368411 L 126.54293598306883,5.913618529301559 L 120.56949839489587,10.970103808643579 L 119.85986417137968,8.055242016239935 A 193.47625057028077 193.47625057028077 0 0 1 95.12094582349647,12.399995241233654"/><text text-anchor="middle" pointer-events="none" font-size="8px" fill="#000000" x="71.87573924911894" y="16.03323168679836" font-family="Helvetica Neue, Helvetica, Arial, sans-serif">twowheeler</text></g><g class="relationship" transform="translate(-80.52062680303273 -86.55839474830302) rotate(436.3062771667682)"><path class="b-outline" fill="#A5ABB6" stroke="none" d="M 24.018736134675446,-6.953439040707552 L 24.277555179777966,-5.987513214418485 A 192.3943501793956 192.3943501793956 0 0 1 48.7619815008762,-10.871007379732163 L 48.6304241258709,-11.862315937690624 A 193.3943501793956 193.3943501793956 0 0 0 24.018736134675446,-6.953439040707552 Z M 95.10009016158601,-12.396678971102745 L 94.99136302986912,-11.402607338458182 A 192.3943501793956 192.3943501793956 0 0 1 119.58161250360064,-7.0834316815083955 L 118.87199600054578,-4.168565575047896 L 126.50123616918428,-5.9134708587904745 L 120.52776784100712,-10.96991982345573 L 119.81815133795226,-8.055053716995229 A 193.3943501793956 193.3943501793956 0 0 0 95.10009016158601,-12.396678971102745"/><text text-anchor="middle" pointer-events="none" font-size="8px" fill="#000000" x="71.85489704743662" y="-10.030439669102577" font-family="Helvetica Neue, Helvetica, Arial, sans-serif">twowheeler</text></g><g class="relationship" transform="translate(131.9081558312112 -183.52157589459958) rotate(515.4656589301499)"><path class="b-outline" fill="#A5ABB6" stroke="none" d="M 24.018736134675446,-6.953439040707552 L 24.277555179777966,-5.987513214418485 A 354.008301012876 354.008301012876 0 0 1 90.05573025069826,-17.105296182279915 L 89.98272090238171,-18.102627438713 A 355.008301012876 355.008301012876 0 0 0 24.018736134675446,-6.953439040707552 Z M 136.47847832666343,-18.453219266248936 L 136.42051677291482,-17.454900450295327 A 354.008301012876 354.008301012876 0 0 1 202.35886573306422,-7.330299214163844 L 201.6261946074488,-4.4211424597606985 L 209.26901001427413,-6.105592713461738 L 203.3357605672181,-11.209174886701371 L 202.6030894416027,-8.300018132298225 A 355.008301012876 355.008301012876 0 0 0 136.47847832666343,-18.453219266248936"/><text text-anchor="middle" pointer-events="none" font-size="8px" fill="#000000" x="113.22862365960202" y="-15.53997601159034" transform="rotate(180 113.22862365960202 -18.53997601159034)" font-family="Helvetica Neue, Helvetica, Arial, sans-serif">twowheeler</text></g><g class="relationship" transform="translate(131.9081558312112 -183.52157589459958) rotate(515.4656589301499)"><path class="b-outline" fill="#A5ABB6" stroke="none" d="M 24.018736134675446,6.953439040707552 L 24.277555179777966,5.987513214418485 A 354.008301012876 354.008301012876 0 0 0 103.58052431295465,17.835572666772975 L 103.54571970171224,18.834966802755503 A 355.008301012876 355.008301012876 0 0 1 24.018736134675446,6.953439040707552 Z M 122.90597823261217,18.980948905121977 L 122.88624817952234,17.981143561564977 A 354.008301012876 354.008301012876 0 0 0 202.35886573306422,7.330299214163844 L 201.6261946074488,4.4211424597606985 L 209.26901001427413,6.105592713461738 L 203.3357605672181,11.209174886701371 L 202.6030894416027,8.300018132298225 A 355.008301012876 355.008301012876 0 0 1 122.90597823261217,18.980948905121977"/><text text-anchor="middle" pointer-events="none" font-size="8px" fill="#000000" x="113.22862365960204" y="21.53997601159034" transform="rotate(180 113.22862365960204 18.53997601159034)" font-family="Helvetica Neue, Helvetica, Arial, sans-serif">trek</text></g><g class="relationship" transform="translate(-80.52062680303273 -86.55839474830302) rotate(436.3062771667682)"><path class="b-outline" fill="#A5ABB6" stroke="none" d="M 24.018736134675446,6.953439040707552 L 24.277555179777966,5.987513214418485 A 192.3943501793956 192.3943501793956 0 0 0 62.22518981602411,12.178053606068175 L 62.163609591088935,13.176155743074673 A 193.3943501793956 193.3943501793956 0 0 1 24.018736134675446,6.953439040707552 Z M 81.54027107533804,13.398971452577825 L 81.50165881033608,12.399717184139917 A 192.3943501793956 192.3943501793956 0 0 0 119.58161250360064,7.0834316815083955 L 118.87199600054578,4.168565575047896 L 126.50123616918428,5.9134708587904745 L 120.52776784100712,10.96991982345573 L 119.81815133795226,8.055053716995229 A 193.3943501793956 193.3943501793956 0 0 1 81.54027107533804,13.398971452577825"/><text text-anchor="middle" pointer-events="none" font-size="8px" fill="#000000" x="71.8548970474367" y="16.030439669102577" font-family="Helvetica Neue, Helvetica, Arial, sans-serif">trek</text></g><g class="relationship" transform="translate(-44.8234300412152 59.947145034318225) rotate(392.903703302931)"><path class="b-outline" fill="#A5ABB6" stroke="none" d="M 24.018736134675446,-6.953439040707552 L 24.277555179777966,-5.987513214418485 A 192.47625057028077 192.47625057028077 0 0 1 62.24601419594829,-12.180976955340157 L 62.1844582360507,-13.179080589138294 A 193.47625057028077 193.47625057028077 0 0 0 24.018736134675446,-6.953439040707552 Z M 81.56110602207289,-13.401837234680983 L 81.52251197529571,-12.402582262437477 A 192.47625057028077 192.47625057028077 0 0 1 119.62331943020763,-7.083621418772054 L 118.91368520669144,-4.168759626368411 L 126.54293598306883,-5.913618529301559 L 120.56949839489587,-10.970103808643579 L 119.85986417137968,-8.055242016239935 A 193.47625057028077 193.47625057028077 0 0 0 81.56110602207289,-13.401837234680983"/><text text-anchor="middle" pointer-events="none" font-size="8px" fill="#000000" x="71.87573924911892" y="-10.03323168679836" font-family="Helvetica Neue, Helvetica, Arial, sans-serif">trek</text></g><g class="relationship" transform="translate(86.37477700116585 -95.8379460786345) rotate(403.370177704903)"><path class="b-outline" fill="#A5ABB6" stroke="none" d="M 21.40063509461097,12.933012701892217 L 21.90063509461097,12.06698729810778 A 90.96176103849663 90.96176103849663 0 0 0 42.38713041283191,20.752197820031228 L 42.11235137474304,21.713705220016763 A 91.96176103849663 91.96176103849663 0 0 1 21.40063509461097,12.933012701892217 Z M 88.31672613261986,22.838887755053037 L 88.08907487537613,21.86514502461786 A 90.96176103849663 90.96176103849663 0 0 0 108.97404510443145,14.187424609996757 L 107.60228638904215,11.519414485062166 L 115.42802851517705,11.431322628244157 L 110.80305672495052,17.744771443242882 L 109.43129800956122,15.07676131830829 A 91.96176103849663 91.96176103849663 0 0 1 88.31672613261986,22.838887755053037"/><text text-anchor="middle" pointer-events="none" font-size="8px" fill="#000000" x="65.1548720260327" y="27.726444582634613" font-family="Helvetica Neue, Helvetica, Arial, sans-serif">twowheeler</text></g><g class="relationship" transform="translate(22.744931093307038 -266.2228781493538) rotate(429.52197400321495)"><path class="b-outline" fill="#A5ABB6" stroke="none" d="M 21.40063509461097,-12.933012701892217 L 21.90063509461097,-12.06698729810778 A 135.88343980155022 135.88343980155022 0 0 1 64.3174003235055,-27.85302570684958 L 64.12955583922428,-28.835224490052397 A 136.88343980155022 136.88343980155022 0 0 0 21.40063509461097,-12.933012701892217 Z M 110.53148487501755,-29.6993629442497 L 110.38034073435578,-28.7108512100029 A 135.88343980155022 135.88343980155022 0 0 1 153.35545461132244,-14.515057171373945 L 151.953228562835,-11.862933096421324 L 159.7774484609598,-11.68521707072868 L 155.22508934263905,-18.051222604644103 L 153.8228632941516,-15.399098529691484 A 136.88343980155022 136.88343980155022 0 0 0 110.53148487501755,-29.6993629442497"/><text text-anchor="middle" pointer-events="none" font-size="8px" fill="#000000" x="87.30294023467424" y="-27.74827269494459" font-family="Helvetica Neue, Helvetica, Arial, sans-serif">twowheeler</text></g><g class="relationship" transform="translate(-0.1381009595878236 -144.5570450232496) rotate(280.6518103962225)"><path class="b-outline" fill="#A5ABB6" stroke="none" d="M 24.018736134675446,-6.953439040707552 L 24.277555179777966,-5.987513214418485 A 139.1338655809846 139.1338655809846 0 0 1 47.40948342162211,-10.13106698604983 L 47.31692101105822,-11.126773870705449 A 140.1338655809846 140.1338655809846 0 0 0 24.018736134675446,-6.953439040707552 Z M 69.38246900551722,-11.432968124656497 L 69.3175709199835,-10.435076227458183 A 139.1338655809846 139.1338655809846 0 0 1 92.55556687654736,-6.934978233551643 L 91.85981568762719,-4.016771543970494 L 99.48067435039007,-5.797926574334767 L 93.48323512844092,-10.825920486326508 L 92.78748393952075,-7.907713796745359 A 140.1338655809846 140.1338655809846 0 0 0 69.38246900551722,-11.432968124656497"/><text text-anchor="middle" pointer-events="none" font-size="8px" fill="#000000" x="58.35059598996125" y="-8.21494275653049" font-family="Helvetica Neue, Helvetica, Arial, sans-serif">road</text></g><g class="relationship" transform="translate(-0.1381009595878236 -144.5570450232496) rotate(280.6518103962225)"><path class="b-outline" fill="#A5ABB6" stroke="none" d="M 24.018736134675446,6.953439040707552 L 24.277555179777966,5.987513214418485 A 139.1338655809846 139.1338655809846 0 0 0 48.7374310204859,10.248101011654484 L 48.654412997935076,11.244649057627043 A 140.1338655809846 140.1338655809846 0 0 1 24.018736134675446,6.953439040707552 Z M 68.04222123451713,11.513685452292492 L 67.9868872023651,10.515217553516663 A 139.1338655809846 139.1338655809846 0 0 0 92.55556687654736,6.934978233551643 L 91.85981568762719,4.016771543970494 L 99.48067435039007,5.797926574334767 L 93.48323512844092,10.825920486326508 L 92.78748393952075,7.907713796745359 A 140.1338655809846 140.1338655809846 0 0 1 68.04222123451713,11.513685452292492"/><text text-anchor="middle" pointer-events="none" font-size="8px" fill="#000000" x="58.350595989961285" y="14.21494275653049" font-family="Helvetica Neue, Helvetica, Arial, sans-serif">trek</text></g><g class="relationship" transform="translate(22.744931093307038 -266.2228781493538) rotate(429.52197400321495)"><path class="b-outline" fill="#A5ABB6" stroke="none" d="M 25 0.5 L 76.43338183444914 0.5 L 76.43338183444914 -0.5 L 25 -0.5 Z M 98.44510058444914 0.5 L 149.87848241889827 0.5 L 149.87848241889827 3.5 L 156.87848241889827 0 L 149.87848241889827 -3.5 L 149.87848241889827 -0.5 L 98.44510058444914 -0.5 Z"/><text text-anchor="middle" pointer-events="none" font-size="8px" fill="#000000" x="87.43924120944914" y="3" font-family="Helvetica Neue, Helvetica, Arial, sans-serif">road</text></g><g class="relationship" transform="translate(22.744931093307038 -266.2228781493538) rotate(429.52197400321495)"><path class="b-outline" fill="#A5ABB6" stroke="none" d="M 21.40063509461097,12.933012701892217 L 21.90063509461097,12.06698729810778 A 135.88343980155022 135.88343980155022 0 0 0 77.69581370763416,29.72794133064498 L 77.60642429192986,30.723938083832493 A 136.88343980155022 136.88343980155022 0 0 1 21.40063509461097,12.933012701892217 Z M 96.99363881343017,31.08498422859249 L 96.94139521238966,30.086349857989163 A 135.88343980155022 135.88343980155022 0 0 0 153.35545461132244,14.515057171373945 L 151.953228562835,11.862933096421324 L 159.7774484609598,11.68521707072868 L 155.22508934263905,18.051222604644103 L 153.8228632941516,15.399098529691484 A 136.88343980155022 136.88343980155022 0 0 1 96.99363881343017,31.08498422859249"/><text text-anchor="middle" pointer-events="none" font-size="8px" fill="#000000" x="87.30294023467424" y="33.74827269494459" font-family="Helvetica Neue, Helvetica, Arial, sans-serif">trek</text></g><g class="relationship" transform="translate(86.37477700116585 -95.8379460786345) rotate(403.370177704903)"><path class="b-outline" fill="#A5ABB6" stroke="none" d="M 25 0.5 L 54.324863736482655 0.5 L 54.324863736482655 -0.5 L 25 -0.5 Z M 76.33658248648265 0.5 L 105.66144622296531 0.5 L 105.66144622296531 3.5 L 112.66144622296531 0 L 105.66144622296531 -3.5 L 105.66144622296531 -0.5 L 76.33658248648265 -0.5 Z"/><text text-anchor="middle" pointer-events="none" font-size="8px" fill="#000000" x="65.33072311148265" y="3" font-family="Helvetica Neue, Helvetica, Arial, sans-serif">road</text></g><g class="relationship" transform="translate(86.37477700116585 -95.8379460786345) rotate(403.370177704903)"><path class="b-outline" fill="#A5ABB6" stroke="none" d="M 21.40063509461097,-12.933012701892217 L 21.90063509461097,-12.06698729810778 A 90.96176103849663 90.96176103849663 0 0 1 55.58502888556603,-23.485388090470565 L 55.45534266804326,-24.476943174661372 A 91.96176103849663 91.96176103849663 0 0 0 21.40063509461097,-12.933012701892217 Z M 74.85504855763044,-24.949370523071337 L 74.77378072566012,-23.952678223769865 A 90.96176103849663 90.96176103849663 0 0 1 108.97404510443145,-14.187424609996757 L 107.60228638904215,-11.519414485062166 L 115.42802851517705,-11.431322628244157 L 110.80305672495052,-17.744771443242882 L 109.43129800956122,-15.07676131830829 A 91.96176103849663 91.96176103849663 0 0 0 74.85504855763044,-24.949370523071337"/><text text-anchor="middle" pointer-events="none" font-size="8px" fill="#000000" x="65.15487202603269" y="-21.726444582634613" font-family="Helvetica Neue, Helvetica, Arial, sans-serif">trek</text></g><g class="relationship" transform="translate(-80.43328344026412 164.83764233257688) rotate(351.9476943448899)"><path class="b-outline" fill="#A5ABB6" stroke="none" d="M 25 0.5 L 68.76348554072293 0.5 L 68.76348554072293 -0.5 L 25 -0.5 Z M 88.09942304072293 0.5 L 131.86290858144585 0.5 L 131.86290858144585 3.5 L 138.86290858144585 0 L 131.86290858144585 -3.5 L 131.86290858144585 -0.5 L 88.09942304072293 -0.5 Z"/><text text-anchor="middle" pointer-events="none" font-size="8px" fill="#000000" x="78.43145429072293" y="3" font-family="Helvetica Neue, Helvetica, Arial, sans-serif">trek</text></g><g class="relationship" transform="translate(-186.50098646519623 42.97992403117242) rotate(408.96295448544913)"><path class="b-outline" fill="#A5ABB6" stroke="none" d="M 25 0.5 L 67.60897897428832 0.5 L 67.60897897428832 -0.5 L 25 -0.5 Z M 86.94491647428832 0.5 L 129.55389544857664 0.5 L 129.55389544857664 3.5 L 136.55389544857664 0 L 129.55389544857664 -3.5 L 129.55389544857664 -0.5 L 86.94491647428832 -0.5 Z"/><text text-anchor="middle" pointer-events="none" font-size="8px" fill="#000000" x="77.27694772428832" y="3" font-family="Helvetica Neue, Helvetica, Arial, sans-serif">trek</text></g><g class="relationship" transform="translate(-80.52062680303273 -86.55839474830302) rotate(489.2879396843001)"><path class="b-outline" fill="#A5ABB6" stroke="none" d="M 24.018736134675446,-6.953439040707552 L 24.277555179777966,-5.987513214418485 A 224.9232007205166 224.9232007205166 0 0 1 57.02566374200168,-12.20526005124185 L 56.912441542655046,-13.198829743601237 A 225.9232007205166 225.9232007205166 0 0 0 24.018736134675446,-6.953439040707552 Z M 103.39543655136403,-13.682463189879485 L 103.3029118647757,-12.686752799067108 A 224.9232007205166 224.9232007205166 0 0 1 136.17330234870218,-7.151735223285325 L 135.4573067693434,-4.238429484036745 L 143.090348336842,-5.966629827989653 L 137.12796312118053,-11.036142875616765 L 136.41196754182175,-8.122837136368185 A 225.9232007205166 225.9232007205166 0 0 0 103.39543655136403,-13.682463189879485"/><text text-anchor="middle" pointer-events="none" font-size="8px" fill="#000000" x="80.1466690058407" y="-11.13938492241212" transform="rotate(180 80.1466690058407 -14.13938492241212)" font-family="Helvetica Neue, Helvetica, Arial, sans-serif">twowheeler</text></g><g class="relationship" transform="translate(-80.52062680303273 -86.55839474830302) rotate(489.2879396843001)"><path class="b-outline" fill="#A5ABB6" stroke="none" d="M 24.018736134675446,6.953439040707552 L 24.277555179777966,5.987513214418485 A 224.9232007205166 224.9232007205166 0 0 0 70.51097706249661,13.332263108949064 L 70.45771005353183,14.33084341406024 A 225.9232007205166 225.9232007205166 0 0 1 24.018736134675446,6.953439040707552 Z M 89.82954680791866,14.532398158295393 L 89.79706858712127,13.532925714866451 A 224.9232007205166 224.9232007205166 0 0 0 136.17330234870218,7.151735223285325 L 135.4573067693434,4.238429484036745 L 143.090348336842,5.966629827989653 L 137.12796312118053,11.036142875616765 L 136.41196754182175,8.122837136368185 A 225.9232007205166 225.9232007205166 0 0 1 89.82954680791866,14.532398158295393"/><text text-anchor="middle" pointer-events="none" font-size="8px" fill="#000000" x="80.14666900584078" y="17.13938492241212" transform="rotate(180 80.14666900584078 14.13938492241212)" font-family="Helvetica Neue, Helvetica, Arial, sans-serif">trek</text></g><g class="relationship" transform="translate(-186.50098646519623 42.97992403117242) rotate(366.82918409134135)"><path class="b-outline" fill="#A5ABB6" stroke="none" d="M 21.40063509461097,12.933012701892217 L 21.90063509461097,12.06698729810778 A 96.09238844263918 96.09238844263918 0 0 0 44.867923039157674,21.610575163973152 L 44.606935601097035,22.575917360903617 A 97.09238844263918 97.09238844263918 0 0 1 21.40063509461097,12.933012701892217 Z M 90.8504841251255,23.663985425600913 L 90.63518759009851,22.68743670587139 A 96.09238844263918 96.09238844263918 0 0 0 114.0259145740099,14.234610193672571 L 112.64976753554623,11.568860894033222 L 120.47535411291233,11.467891987197241 L 115.86077729196145,17.788942593191702 L 114.48463025349778,15.123193293552353 A 97.09238844263918 97.09238844263918 0 0 1 90.8504841251255,23.663985425600913"/><text text-anchor="middle" pointer-events="none" font-size="8px" fill="#000000" x="67.67472831513508" y="28.41419971670932" font-family="Helvetica Neue, Helvetica, Arial, sans-serif">twowheeler</text></g><g class="relationship" transform="translate(-186.50098646519623 42.97992403117242) rotate(366.82918409134135)"><path class="b-outline" fill="#A5ABB6" stroke="none" d="M 25 0.5 L 56.839106429953475 0.5 L 56.839106429953475 -0.5 L 25 -0.5 Z M 78.85082517995347 0.5 L 110.68993160990695 0.5 L 110.68993160990695 3.5 L 117.68993160990695 0 L 110.68993160990695 -3.5 L 110.68993160990695 -0.5 L 78.85082517995347 -0.5 Z"/><text text-anchor="middle" pointer-events="none" font-size="8px" fill="#000000" x="67.84496580495347" y="3" font-family="Helvetica Neue, Helvetica, Arial, sans-serif">road</text></g><g class="relationship" transform="translate(-186.50098646519623 42.97992403117242) rotate(366.82918409134135)"><path class="b-outline" fill="#A5ABB6" stroke="none" d="M 21.40063509461097,-12.933012701892217 L 21.90063509461097,-12.06698729810778 A 96.09238844263918 96.09238844263918 0 0 1 58.098586324164756,-24.207681325642028 L 57.975285788255626,-25.200050701350747 A 97.09238844263918 97.09238844263918 0 0 0 21.40063509461097,-12.933012701892217 Z M 77.37350910361961,-25.656473012678063 L 77.29701824880789,-24.659402729733998 A 96.09238844263918 96.09238844263918 0 0 1 114.0259145740099,-14.234610193672571 L 112.64976753554623,-11.568860894033222 L 120.47535411291233,-11.467891987197241 L 115.86077729196145,-17.788942593191702 L 114.48463025349778,-15.123193293552353 A 97.09238844263918 97.09238844263918 0 0 0 77.37350910361961,-25.656473012678063"/><text text-anchor="middle" pointer-events="none" font-size="8px" fill="#000000" x="67.67472831513507" y="-22.41419971670932" font-family="Helvetica Neue, Helvetica, Arial, sans-serif">trek</text></g><g class="relationship" transform="translate(131.9081558312112 -183.52157589459958) rotate(217.14731681871865)"><path class="b-outline" fill="#A5ABB6" stroke="none" d="M 25 0.5 L 55.3085144939035 0.5 L 55.3085144939035 -0.5 L 25 -0.5 Z M 74.6444519939035 0.5 L 104.952966487807 0.5 L 104.952966487807 3.5 L 111.952966487807 0 L 104.952966487807 -3.5 L 104.952966487807 -0.5 L 74.6444519939035 -0.5 Z"/><text text-anchor="middle" pointer-events="none" font-size="8px" fill="#000000" x="64.9764832439035" y="3" transform="rotate(180 64.9764832439035 0)" font-family="Helvetica Neue, Helvetica, Arial, sans-serif">trek</text></g></g><g class="layer nodes"><g class="node" aria-label="graph-node3" transform="translate(81.8140358637988,141.88420713396783)"><circle class="b-outline" cx="0" cy="0" r="25" fill="#D9C8AE" stroke="#c0a378" stroke-width="2px"/><text class="caption" text-anchor="middle" pointer-events="none" x="0" y="5" font-size="10px" fill="#2A2C34" font-family="Helvetica Neue, Helvetica, Arial, sans-serif"> Sandakp…</text></g><g class="node" aria-label="graph-node1" transform="translate(-0.1381009595878236,-144.5570450232496)"><circle class="b-outline" cx="0" cy="0" r="25" fill="#F16667" stroke="#eb2728" stroke-width="2px"/><text class="caption" text-anchor="middle" pointer-events="none" x="0" y="5" font-size="10px" fill="#FFFFFF" font-family="Helvetica Neue, Helvetica, Arial, sans-serif"> Darjeeling</text></g><g class="node" aria-label="graph-node2" transform="translate(186.445314916113,-1.3045592906245687)"><circle class="b-outline" cx="0" cy="0" r="25" fill="#57C7E3" stroke="#23b3d7" stroke-width="2px"/><text class="caption" text-anchor="middle" pointer-events="none" x="0" y="5" font-size="10px" fill="#2A2C34" font-family="Helvetica Neue, Helvetica, Arial, sans-serif"> BhikeBh…</text></g><g class="node" aria-label="graph-node0" transform="translate(131.9081558312112,-183.52157589459958)"><circle class="b-outline" cx="0" cy="0" r="25" fill="#F16667" stroke="#eb2728" stroke-width="2px"/><text class="caption" text-anchor="middle" pointer-events="none" x="0" y="5" font-size="10px" fill="#FFFFFF" font-family="Helvetica Neue, Helvetica, Arial, sans-serif"> Rimbik</text></g><g class="node" aria-label="graph-node5" transform="translate(-44.8234300412152,59.947145034318225)"><circle class="b-outline" cx="0" cy="0" r="25" fill="#57C7E3" stroke="#23b3d7" stroke-width="2px"/><text class="caption" text-anchor="middle" pointer-events="none" x="0" y="5" font-size="10px" fill="#2A2C34" font-family="Helvetica Neue, Helvetica, Arial, sans-serif"> Gurdum</text></g><g class="node" aria-label="graph-node4" transform="translate(-80.52062680303273,-86.55839474830302)"><circle class="b-outline" cx="0" cy="0" r="25" fill="#57C7E3" stroke="#23b3d7" stroke-width="2px"/><text class="caption" text-anchor="middle" pointer-events="none" x="0" y="5" font-size="10px" fill="#2A2C34" font-family="Helvetica Neue, Helvetica, Arial, sans-serif"> Sirikhola</text></g><g class="node" aria-label="graph-node7" transform="translate(86.37477700116585,-95.8379460786345)"><circle class="b-outline" cx="0" cy="0" r="25" fill="#57C7E3" stroke="#23b3d7" stroke-width="2px"/><text class="caption" text-anchor="middle" pointer-events="none" x="0" y="5" font-size="10px" fill="#2A2C34" font-family="Helvetica Neue, Helvetica, Arial, sans-serif"> Gairibus</text></g><g class="node" aria-label="graph-node6" transform="translate(22.744931093307038,-266.2228781493538)"><circle class="b-outline" cx="0" cy="0" r="25" fill="#57C7E3" stroke="#23b3d7" stroke-width="2px"/><text class="caption" text-anchor="middle" pointer-events="none" x="0" y="5" font-size="10px" fill="#2A2C34" font-family="Helvetica Neue, Helvetica, Arial, sans-serif"> Tumbling</text></g><g class="node" aria-label="graph-node9" transform="translate(-80.43328344026412,164.83764233257688)"><circle class="b-outline" cx="0" cy="0" r="25" fill="#D9C8AE" stroke="#c0a378" stroke-width="2px"/><text class="caption" text-anchor="middle" pointer-events="none" x="0" y="5" font-size="10px" fill="#2A2C34" font-family="Helvetica Neue, Helvetica, Arial, sans-serif"> Sabargr…</text></g><g class="node" aria-label="graph-node8" transform="translate(-186.50098646519623,42.97992403117242)"><circle class="b-outline" cx="0" cy="0" r="25" fill="#57C7E3" stroke="#23b3d7" stroke-width="2px"/><text class="caption" text-anchor="middle" pointer-events="none" x="0" y="5" font-size="10px" fill="#2A2C34" font-family="Helvetica Neue, Helvetica, Arial, sans-serif"> Rammam</text></g></g></svg>