<svg xmlns="http://www.w3.org/2000/svg" width="246.93113708496094" height="253.83786010742188" viewBox="-157.86199951171875 -165.98504638671875 246.93113708496094 253.83786010742188"><title>Neo4j Graph Visualization</title><desc>Created using Neo4j (http://www.neo4j.com/)</desc><g class="layer relationships"><g class="relationship" transform="translate(10.898357567552507 -95.83640508657612) rotate(458.40487660041725)"><path class="b-outline" fill="#A5ABB6" stroke="none" d="M 25 0.5 L 57.461648960364556 0.5 L 57.461648960364556 -0.5 L 25 -0.5 Z M 91.90696146036456 0.5 L 124.36861042072911 0.5 L 124.36861042072911 3.5 L 131.3686104207291 0 L 124.36861042072911 -3.5 L 124.36861042072911 -0.5 L 91.90696146036456 -0.5 Z"/><text text-anchor="middle" pointer-events="none" font-size="8px" fill="#000000" x="74.68430521036456" y="3" transform="rotate(180 74.68430521036456 0)" font-family="Helvetica Neue, Helvetica, Arial, sans-serif">ORIGIN</text></g><g class="relationship" transform="translate(10.898357567552507 -95.83640508657612) rotate(196.4056345273193)"><path class="b-outline" fill="#A5ABB6" stroke="none" d="M 25 0.5 L 39.75226477674123 0.5 L 39.75226477674123 -0.5 L 25 -0.5 Z M 98.93976477674123 0.5 L 113.69202955348246 0.5 L 113.69202955348246 3.5 L 120.69202955348246 0 L 113.69202955348246 -3.5 L 113.69202955348246 -0.5 L 98.93976477674123 -0.5 Z"/><text text-anchor="middle" pointer-events="none" font-size="8px" fill="#000000" x="69.34601477674123" y="3" transform="rotate(180 69.34601477674123 0)" font-family="Helvetica Neue, Helvetica, Arial, sans-serif">DESTINATION</text></g><g class="relationship" transform="translate(-95.63846123945551 4.94891667962572) rotate(256.82555314234975)"><path class="b-outline" fill="#A5ABB6" stroke="none" d="M 25 0.5 L 52.162620042996764 0.5 L 52.162620042996764 -0.5 L 25 -0.5 Z M 86.60793254299676 0.5 L 113.77055258599353 0.5 L 113.77055258599353 3.5 L 120.77055258599353 0 L 113.77055258599353 -3.5 L 113.77055258599353 -0.5 L 86.60793254299676 -0.5 Z"/><text text-anchor="middle" pointer-events="none" font-size="8px" fill="#000000" x="69.38527629299676" y="3" transform="rotate(180 69.38527629299676 0)" font-family="Helvetica Neue, Helvetica, Arial, sans-serif">ORIGIN</text></g><g class="relationship" transform="translate(-95.63846123945551 4.94891667962572) rotate(354.801155860923)"><path class="b-outline" fill="#A5ABB6" stroke="none" d="M 25 0.5 L 45.081644956352235 0.5 L 45.081644956352235 -0.5 L 25 -0.5 Z M 104.26914495635224 0.5 L 124.35078991270447 0.5 L 124.35078991270447 3.5 L 131.35078991270447 0 L 124.35078991270447 -3.5 L 124.35078991270447 -0.5 L 104.26914495635224 -0.5 Z"/><text text-anchor="middle" pointer-events="none" font-size="8px" fill="#000000" x="74.67539495635224" y="3" font-family="Helvetica Neue, Helvetica, Arial, sans-serif">DESTINATION</text></g></g><g class="layer nodes"><g class="node" aria-label="graph-node21" transform="translate(-11.95760871783849,58.85279017305025)"><circle class="b-outline" cx="0" cy="0" r="25" fill="#4C8EDA" stroke="#2870c2" stroke-width="2px"/><text class="caption" text-anchor="middle" pointer-events="none" x="0" y="5" font-size="10px" fill="#FFFFFF" font-family="Helvetica Neue, Helvetica, Arial, sans-serif"> MSN</text></g><g class="node" aria-label="graph-node68" transform="translate(60.06913698340999,-9.218417649504204)"><circle class="b-outline" cx="0" cy="0" r="25" fill="#4C8EDA" stroke="#2870c2" stroke-width="2px"/><text class="caption" text-anchor="middle" pointer-events="none" x="0" y="5" font-size="10px" fill="#FFFFFF" font-family="Helvetica Neue, Helvetica, Arial, sans-serif"> GRR</text></g><g class="node" aria-label="graph-node271" transform="translate(10.898357567552507,-95.83640508657612)"><circle class="b-outline" cx="0" cy="0" r="25" fill="#ECB5C9" stroke="#da7298" stroke-width="2px"/><text class="caption" text-anchor="middle" pointer-events="none" x="0" y="5" font-size="10px" fill="#2A2C34" font-family="Helvetica Neue, Helvetica, Arial, sans-serif"> </text></g><g class="node" aria-label="graph-node7" transform="translate(-128.86199643699476,-136.98504934050555)"><circle class="b-outline" cx="0" cy="0" r="25" fill="#4C8EDA" stroke="#2870c2" stroke-width="2px"/><text class="caption" text-anchor="middle" pointer-events="none" x="0" y="5" font-size="10px" fill="#FFFFFF" font-family="Helvetica Neue, Helvetica, Arial, sans-serif"> ORD</text></g><g class="node" aria-label="graph-node851" transform="translate(-95.63846123945551,4.94891667962572)"><circle class="b-outline" cx="0" cy="0" r="25" fill="#ECB5C9" stroke="#da7298" stroke-width="2px"/><text class="caption" text-anchor="middle" pointer-events="none" x="0" y="5" font-size="10px" fill="#2A2C34" font-family="Helvetica Neue, Helvetica, Arial, sans-serif"> </text></g></g></svg>