<svg xmlns="http://www.w3.org/2000/svg" width="524.8298950195312" height="419.340087890625" viewBox="-276.0268249511719 -222.6436767578125 524.8298950195312 419.340087890625"><title>Neo4j Graph Visualization</title><desc>Created using Neo4j (http://www.neo4j.com/)</desc><g class="layer relationships"><g class="relationship" transform="translate(79.02886253557195 31.246551763100726) rotate(482.95608250313154)"><path class="b-outline" fill="#A5ABB6" stroke="none" d="M 25 0.5 L 68.14048027484367 0.5 L 68.14048027484367 -0.5 L 25 -0.5 Z M 87.47641777484367 0.5 L 130.61689804968734 0.5 L 130.61689804968734 3.5 L 137.61689804968734 0 L 130.61689804968734 -3.5 L 130.61689804968734 -0.5 L 87.47641777484367 -0.5 Z"/><text text-anchor="middle" pointer-events="none" font-size="8px" fill="#000000" x="77.80844902484367" y="3" transform="rotate(180 77.80844902484367 0)" font-family="Helvetica Neue, Helvetica, Arial, sans-serif">trek</text></g><g class="relationship" transform="translate(219.80306509115073 -51.368649206268955) rotate(509.5928951421094)"><path class="b-outline" fill="#A5ABB6" stroke="none" d="M 21.40063509461097,12.933012701892217 L 21.90063509461097,12.06698729810778 A 116.98001900834873 116.98001900834873 0 0 0 55.04160153221205,24.959804489462897 L 54.82490603770401,25.936043734043807 A 117.98001900834873 117.98001900834873 0 0 1 21.40063509461097,12.933012701892217 Z M 101.17405186404302,26.894304647205317 L 100.99789146468093,25.909943172087267 A 116.98001900834873 116.98001900834873 0 0 0 134.64342381509988,14.397925781342511 L 133.25208930320065,11.74007170784673 L 141.0769724052399,11.594454265826936 L 136.4985364976322,17.941731212670224 L 135.10720198573296,15.28387713917444 A 117.98001900834873 117.98001900834873 0 0 1 101.17405186404302,26.894304647205317"/><text text-anchor="middle" pointer-events="none" font-size="8px" fill="#000000" x="77.9622836084926" y="31.214237811393673" transform="rotate(180 77.9622836084926 28.214237811393673)" font-family="Helvetica Neue, Helvetica, Arial, sans-serif">twowheeler</text></g><g class="relationship" transform="translate(146.3992512883051 -193.64367414940327) rotate(422.709477888179)"><path class="b-outline" fill="#A5ABB6" stroke="none" d="M 21.40063509461097,-12.933012701892217 L 21.90063509461097,-12.06698729810778 A 113.80112205145953 113.80112205145953 0 0 1 53.487147161692874,-24.462287693524033 L 53.26470604246383,-25.437233819459266 A 114.80112205145953 114.80112205145953 0 0 0 21.40063509461097,-12.933012701892217 Z M 99.60185606887092,-26.413299684500416 L 99.42066742213272,-25.429851325768155 A 113.80112205145953 113.80112205145953 0 0 1 131.5011297786682,-14.375659747573623 L 130.1118657879011,-11.716722823922009 L 137.93685993231648,-11.577199923059036 L 133.35348176635765,-17.92090897910911 L 131.96421777559055,-15.261972055457496 A 114.80112205145953 114.80112205145953 0 0 0 99.60185606887092,-26.413299684500416"/><text text-anchor="middle" pointer-events="none" font-size="8px" fill="#000000" x="76.39404159376807" y="-24.788096811001168" font-family="Helvetica Neue, Helvetica, Arial, sans-serif">twowheeler</text></g><g class="relationship" transform="translate(120.58273264400273 -59.34584450779239) rotate(280.881418152592)"><path class="b-outline" fill="#A5ABB6" stroke="none" d="M 24.018736134675446,-6.953439040707552 L 24.277555179777966,-5.987513214418485 A 164.7560691734904 164.7560691734904 0 0 1 53.88092859321927,-11.08469732624917 L 53.80178956574491,-12.081560914876235 A 165.7560691734904 165.7560691734904 0 0 0 24.018736134675446,-6.953439040707552 Z M 75.862032045743,-12.360043203767304 L 75.80808247748752,-11.361499542185584 A 164.7560691734904 164.7560691734904 0 0 1 105.53069263875983,-7.013229940772383 L 104.82763273047816,-4.096775455379722 L 112.45292975605632,-5.858832569013928 L 106.46810584980206,-10.90183592129593 L 105.76504594152038,-7.98538143590327 A 165.7560691734904 165.7560691734904 0 0 0 75.862032045743,-12.360043203767304"/><text text-anchor="middle" pointer-events="none" font-size="8px" fill="#000000" x="64.83358379950684" y="-9.088274248581456" font-family="Helvetica Neue, Helvetica, Arial, sans-serif">road</text></g><g class="relationship" transform="translate(120.58273264400273 -59.34584450779239) rotate(280.881418152592)"><path class="b-outline" fill="#A5ABB6" stroke="none" d="M 24.018736134675446,6.953439040707552 L 24.277555179777966,5.987513214418485 A 164.7560691734904 164.7560691734904 0 0 0 55.211000575369546,11.184872846143492 L 55.13993452504756,12.182344458016047 A 165.7560691734904 165.7560691734904 0 0 1 24.018736134675446,6.953439040707552 Z M 74.52176938669905,12.427015283374175 L 74.47590557159714,11.428067581808023 A 164.7560691734904 164.7560691734904 0 0 0 105.53069263875983,7.013229940772383 L 104.82763273047816,4.096775455379722 L 112.45292975605632,5.858832569013928 L 106.46810584980206,10.90183592129593 L 105.76504594152038,7.98538143590327 A 165.7560691734904 165.7560691734904 0 0 1 74.52176938669905,12.427015283374175"/><text text-anchor="middle" pointer-events="none" font-size="8px" fill="#000000" x="64.83358379950693" y="15.088274248581456" font-family="Helvetica Neue, Helvetica, Arial, sans-serif">trek</text></g><g class="relationship" transform="translate(146.3992512883051 -193.64367414940327) rotate(422.709477888179)"><path class="b-outline" fill="#A5ABB6" stroke="none" d="M 25 0.5 L 65.54147443970666 0.5 L 65.54147443970666 -0.5 L 25 -0.5 Z M 87.55319318970666 0.5 L 128.09466762941332 0.5 L 128.09466762941332 3.5 L 135.09466762941332 0 L 128.09466762941332 -3.5 L 128.09466762941332 -0.5 L 87.55319318970666 -0.5 Z"/><text text-anchor="middle" pointer-events="none" font-size="8px" fill="#000000" x="76.54733381470666" y="3" font-family="Helvetica Neue, Helvetica, Arial, sans-serif">road</text></g><g class="relationship" transform="translate(146.3992512883051 -193.64367414940327) rotate(422.709477888179)"><path class="b-outline" fill="#A5ABB6" stroke="none" d="M 21.40063509461097,12.933012701892217 L 21.90063509461097,12.06698729810778 A 113.80112205145953 113.80112205145953 0 0 0 66.80106811415828,26.678981849693372 L 66.69561987437066,27.673406642589086 A 114.80112205145953 114.80112205145953 0 0 1 21.40063509461097,12.933012701892217 Z M 86.08869017320797,28.081910703072992 L 86.02521088030001,27.083927547217186 A 113.80112205145953 113.80112205145953 0 0 0 131.5011297786682,14.375659747573623 L 130.1118657879011,11.716722823922009 L 137.93685993231648,11.577199923059036 L 133.35348176635765,17.92090897910911 L 131.96421777559055,15.261972055457496 A 114.80112205145953 114.80112205145953 0 0 1 86.08869017320797,28.081910703072992"/><text text-anchor="middle" pointer-events="none" font-size="8px" fill="#000000" x="76.39404159376808" y="30.788096811001168" font-family="Helvetica Neue, Helvetica, Arial, sans-serif">trek</text></g><g class="relationship" transform="translate(219.80306509115073 -51.368649206268955) rotate(509.5928951421094)"><path class="b-outline" fill="#A5ABB6" stroke="none" d="M 25 0.5 L 67.10701880051906 0.5 L 67.10701880051906 -0.5 L 25 -0.5 Z M 89.11873755051906 0.5 L 131.22575635103811 0.5 L 131.22575635103811 3.5 L 138.22575635103811 0 L 131.22575635103811 -3.5 L 131.22575635103811 -0.5 L 89.11873755051906 -0.5 Z"/><text text-anchor="middle" pointer-events="none" font-size="8px" fill="#000000" x="78.11287817551906" y="3" transform="rotate(180 78.11287817551906 0)" font-family="Helvetica Neue, Helvetica, Arial, sans-serif">road</text></g><g class="relationship" transform="translate(219.80306509115073 -51.368649206268955) rotate(509.5928951421094)"><path class="b-outline" fill="#A5ABB6" stroke="none" d="M 21.40063509461097,-12.933012701892217 L 21.90063509461097,-12.06698729810778 A 116.98001900834873 116.98001900834873 0 0 1 68.3668975911999,-27.11976923441982 L 68.26411296943704,-28.114472869443375 A 117.98001900834873 117.98001900834873 0 0 0 21.40063509461097,-12.933012701892217 Z M 87.65629033236728,-28.515402924500208 L 87.59470663544425,-27.517301001712113 A 116.98001900834873 116.98001900834873 0 0 1 134.64342381509988,-14.397925781342511 L 133.25208930320065,-11.74007170784673 L 141.0769724052399,-11.594454265826936 L 136.4985364976322,-17.941731212670224 L 135.10720198573296,-15.28387713917444 A 117.98001900834873 117.98001900834873 0 0 0 87.65629033236728,-28.515402924500208"/><text text-anchor="middle" pointer-events="none" font-size="8px" fill="#000000" x="77.96228360849256" y="-25.21423781139366" transform="rotate(180 77.96228360849256 -28.21423781139366)" font-family="Helvetica Neue, Helvetica, Arial, sans-serif">trek</text></g><g class="relationship" transform="translate(-104.37010191873192 44.442777929653765) rotate(412.39476354461556)"><path class="b-outline" fill="#A5ABB6" stroke="none" d="M 24.018736134675446,6.953439040707552 L 24.277555179777966,5.987513214418485 A 201.79653636726766 201.79653636726766 0 0 0 51.146575707461814,11.263741195553422 L 51.02090572929264,12.255813298067636 A 202.79653636726766 202.79653636726766 0 0 1 24.018736134675446,6.953439040707552 Z M 97.49537630525722,12.774477619845413 L 97.39187831335911,11.779847957270903 A 201.79653636726766 201.79653636726766 0 0 0 124.37195943798736,7.104586645378329 L 123.66036718364576,4.19020223978578 L 131.29078842676023,5.92993545284668 L 125.32074911044283,10.990432519501727 L 124.60915685610124,8.076048113909179 A 202.79653636726766 202.79653636726766 0 0 1 97.49537630525722,12.774477619845413"/><text text-anchor="middle" pointer-events="none" font-size="8px" fill="#000000" x="74.2488130872806" y="16.350966605417227" font-family="Helvetica Neue, Helvetica, Arial, sans-serif">twowheeler</text></g><g class="relationship" transform="translate(-156.52943613629267 -101.51515793143507) rotate(430.3352101671248)"><path class="b-outline" fill="#A5ABB6" stroke="none" d="M 24.018736134675446,-6.953439040707552 L 24.277555179777966,-5.987513214418485 A 200.65843738828406 200.65843738828406 0 0 1 50.857741800917935,-11.216544030116296 L 50.73138758992406,-12.208529218193263 A 201.65843738828406 201.65843738828406 0 0 0 24.018736134675446,-6.953439040707552 Z M 97.20532540864988,-12.729045789374794 L 97.10122093702864,-11.734479422062662 A 200.65843738828406 200.65843738828406 0 0 1 123.79185724446802,-7.102091529178053 L 123.08049801840137,-4.187650235981385 L 130.71078013293803,-5.927993550555336 L 124.74033621255687,-10.988013253440277 L 124.02897698649022,-8.073571960243608 A 201.65843738828406 201.65843738828406 0 0 0 97.20532540864988,-12.729045789374794"/><text text-anchor="middle" pointer-events="none" font-size="8px" fill="#000000" x="73.95891048646354" y="-10.312167785788034" font-family="Helvetica Neue, Helvetica, Arial, sans-serif">twowheeler</text></g><g class="relationship" transform="translate(1.589270519506169 -131.36623151328865) rotate(529.3090150379695)"><path class="b-outline" fill="#A5ABB6" stroke="none" d="M 24.018736134675446,-6.953439040707552 L 24.277555179777966,-5.987513214418485 A 212.26622807110192 212.26622807110192 0 0 1 53.80587900362996,-11.69390297798887 L 53.686169811715956,-12.68671197742998 A 213.26622807110192 213.26622807110192 0 0 0 24.018736134675446,-6.953439040707552 Z M 100.16499786318252,-13.188922190469384 L 100.06676899489895,-12.193758339922283 A 212.26622807110192 212.26622807110192 0 0 1 129.71150097612974,-7.1267416889689565 L 128.99783959252198,-4.212863271885114 L 136.62949417992667,-5.947178196731457 L 130.66304948760677,-11.011912911747412 L 129.949388103999,-8.09803449466357 A 213.26622807110192 213.26622807110192 0 0 0 100.16499786318252,-13.188922190469384"/><text text-anchor="middle" pointer-events="none" font-size="8px" fill="#000000" x="76.91726308914802" y="-10.707890291364606" transform="rotate(180 76.91726308914802 -13.707890291364606)" font-family="Helvetica Neue, Helvetica, Arial, sans-serif">twowheeler</text></g><g class="relationship" transform="translate(120.58273264400273 -59.34584450779239) rotate(211.18427983861625)"><path class="b-outline" fill="#A5ABB6" stroke="none" d="M 21.40063509461097,12.933012701892217 L 21.90063509461097,12.06698729810778 A 92.42137533662704 92.42137533662704 0 0 0 56.29969803764415,23.691222448483558 L 56.171896166245254,24.6830221670089 A 93.42137533662704 93.42137533662704 0 0 1 21.40063509461097,12.933012701892217 Z M 75.57118474305577,25.150785854903404 L 75.49133297515735,24.15397910574714 A 92.42137533662704 92.42137533662704 0 0 0 110.4106703618705,14.201177959190959 L 109.03763255178991,11.533825869179385 L 116.86333154024427,11.441981750671527 L 112.24138744197795,17.757647412539725 L 110.86834963189736,15.090295322528151 A 93.42137533662704 93.42137533662704 0 0 1 75.57118474305577,25.150785854903404"/><text text-anchor="middle" pointer-events="none" font-size="8px" fill="#000000" x="65.87141509752159" y="27.92210287350572" transform="rotate(180 65.87141509752159 24.92210287350572)" font-family="Helvetica Neue, Helvetica, Arial, sans-serif">trek</text></g><g class="relationship" transform="translate(120.58273264400273 -59.34584450779239) rotate(211.18427983861625)"><path class="b-outline" fill="#A5ABB6" stroke="none" d="M 25 0.5 L 55.039773436837024 0.5 L 55.039773436837024 -0.5 L 25 -0.5 Z M 77.05149218683702 0.5 L 107.09126562367405 0.5 L 107.09126562367405 3.5 L 114.09126562367405 0 L 107.09126562367405 -3.5 L 107.09126562367405 -0.5 L 77.05149218683702 -0.5 Z"/><text text-anchor="middle" pointer-events="none" font-size="8px" fill="#000000" x="66.04563281183702" y="3" transform="rotate(180 66.04563281183702 0)" font-family="Helvetica Neue, Helvetica, Arial, sans-serif">road</text></g><g class="relationship" transform="translate(120.58273264400273 -59.34584450779239) rotate(211.18427983861625)"><path class="b-outline" fill="#A5ABB6" stroke="none" d="M 21.40063509461097,-12.933012701892217 L 21.90063509461097,-12.06698729810778 A 92.42137533662704 92.42137533662704 0 0 1 35.878090380130956,-18.646025254329757 L 35.52932655503757,-19.58323589997258 A 93.42137533662704 93.42137533662704 0 0 0 21.40063509461097,-12.933012701892217 Z M 96.43555818436407,-21.051832204929198 L 96.13237023279112,-20.098901427789002 A 92.42137533662704 92.42137533662704 0 0 1 110.4106703618705,-14.201177959190959 L 109.03763255178991,-11.533825869179385 L 116.86333154024427,-11.441981750671527 L 112.24138744197795,-17.757647412539725 L 110.86834963189736,-15.090295322528151 A 93.42137533662704 93.42137533662704 0 0 0 96.43555818436407,-21.051832204929198"/><text text-anchor="middle" pointer-events="none" font-size="8px" fill="#000000" x="65.8714150975216" y="-21.92210287350572" transform="rotate(180 65.8714150975216 -24.92210287350572)" font-family="Helvetica Neue, Helvetica, Arial, sans-serif">PublicTransport</text></g><g class="relationship" transform="translate(1.589270519506169 -131.36623151328865) rotate(529.3090150379695)"><path class="b-outline" fill="#A5ABB6" stroke="none" d="M 24.018736134675446,6.953439040707552 L 24.277555179777966,5.987513214418485 A 212.26622807110192 212.26622807110192 0 0 0 67.28366516674772,12.884656507090796 L 67.22745070164727,13.883075223819162 A 213.26622807110192 213.26622807110192 0 0 1 24.018736134675446,6.953439040707552 Z M 86.60102779624508,14.092409423666851 L 86.56640004375757,13.093009144120316 A 212.26622807110192 212.26622807110192 0 0 0 129.71150097612974,7.1267416889689565 L 128.99783959252198,4.212863271885114 L 136.62949417992667,5.947178196731457 L 130.66304948760677,11.011912911747412 L 129.949388103999,8.09803449466357 A 213.26622807110192 213.26622807110192 0 0 1 86.60102779624508,14.092409423666851"/><text text-anchor="middle" pointer-events="none" font-size="8px" fill="#000000" x="76.9172630891481" y="16.707890291364606" transform="rotate(180 76.9172630891481 13.707890291364606)" font-family="Helvetica Neue, Helvetica, Arial, sans-serif">trek</text></g><g class="relationship" transform="translate(-156.52943613629267 -101.51515793143507) rotate(430.3352101671248)"><path class="b-outline" fill="#A5ABB6" stroke="none" d="M 24.018736134675446,6.953439040707552 L 24.277555179777966,5.987513214418485 A 200.65843738828406 200.65843738828406 0 0 0 64.32748412862419,12.472541885777503 L 64.26825763228327,13.470786456076382 A 201.65843738828406 201.65843738828406 0 0 1 24.018736134675446,6.953439040707552 Z M 83.64357970515027,13.68779359350134 L 83.60672630360148,12.688472910840204 A 200.65843738828406 200.65843738828406 0 0 0 123.79185724446802,7.102091529178053 L 123.08049801840137,4.187650235981385 L 130.71078013293803,5.927993550555336 L 124.74033621255687,10.988013253440277 L 124.02897698649022,8.073571960243608 A 201.65843738828406 201.65843738828406 0 0 1 83.64357970515027,13.68779359350134"/><text text-anchor="middle" pointer-events="none" font-size="8px" fill="#000000" x="73.9589104864636" y="16.312167785788034" font-family="Helvetica Neue, Helvetica, Arial, sans-serif">trek</text></g><g class="relationship" transform="translate(-104.37010191873192 44.442777929653765) rotate(412.39476354461556)"><path class="b-outline" fill="#A5ABB6" stroke="none" d="M 24.018736134675446,-6.953439040707552 L 24.277555179777966,-5.987513214418485 A 201.79653636726766 201.79653636726766 0 0 1 64.617161884611,-12.513023530665293 L 64.55824521360778,-13.511286434853304 A 202.79653636726766 202.79653636726766 0 0 0 24.018736134675446,-6.953439040707552 Z M 83.93338938383434,-13.727516891830163 L 83.89676623686385,-12.72818774429868 A 201.79653636726766 201.79653636726766 0 0 1 124.37195943798736,-7.104586645378329 L 123.66036718364576,-4.19020223978578 L 131.29078842676023,-5.92993545284668 L 125.32074911044283,-10.990432519501727 L 124.60915685610124,-8.076048113909179 A 202.79653636726766 202.79653636726766 0 0 0 83.93338938383434,-13.727516891830163"/><text text-anchor="middle" pointer-events="none" font-size="8px" fill="#000000" x="74.24881308728055" y="-10.350966605417227" font-family="Helvetica Neue, Helvetica, Arial, sans-serif">trek</text></g><g class="relationship" transform="translate(1.589270519506169 -131.36623151328865) rotate(424.53523802628035)"><path class="b-outline" fill="#A5ABB6" stroke="none" d="M 25 0.5 L 76.88730274549422 0.5 L 76.88730274549422 -0.5 L 25 -0.5 Z M 96.22324024549422 0.5 L 148.11054299098845 0.5 L 148.11054299098845 3.5 L 155.11054299098845 0 L 148.11054299098845 -3.5 L 148.11054299098845 -0.5 L 96.22324024549422 -0.5 Z"/><text text-anchor="middle" pointer-events="none" font-size="8px" fill="#000000" x="86.55527149549422" y="3" font-family="Helvetica Neue, Helvetica, Arial, sans-serif">trek</text></g><g class="relationship" transform="translate(1.589270519506169 -131.36623151328865) rotate(336.7292395896061)"><path class="b-outline" fill="#A5ABB6" stroke="none" d="M 25 0.5 L 65.64892409594144 0.5 L 65.64892409594144 -0.5 L 25 -0.5 Z M 84.98486159594144 0.5 L 125.63378569188288 0.5 L 125.63378569188288 3.5 L 132.63378569188288 0 L 125.63378569188288 -3.5 L 125.63378569188288 -0.5 L 84.98486159594144 -0.5 Z"/><text text-anchor="middle" pointer-events="none" font-size="8px" fill="#000000" x="75.31689284594144" y="3" font-family="Helvetica Neue, Helvetica, Arial, sans-serif">trek</text></g><g class="relationship" transform="translate(-247.0268283807192 29.44992216348182) rotate(365.99961452289494)"><path class="b-outline" fill="#A5ABB6" stroke="none" d="M 21.40063509461097,12.933012701892217 L 21.90063509461097,12.06698729810778 A 96.85954400409874 96.85954400409874 0 0 0 45.23960779453092,21.737478235419488 L 44.98056466604925,22.70334399088783 A 97.85954400409874 97.85954400409874 0 0 1 21.40063509461097,12.933012701892217 Z M 91.22939117439378,23.786059152293078 L 91.01583015394945,22.809129425779048 A 96.85954400409874 96.85954400409874 0 0 0 114.78177158738146,14.24139521894731 L 113.4049935440477,11.57597175927077 L 121.23055600051568,11.473150361114628 L 116.6174756451598,17.7952931651827 L 115.24069760182604,15.12986970550616 A 97.85954400409874 97.85954400409874 0 0 1 91.22939117439378,23.786059152293078"/><text text-anchor="middle" pointer-events="none" font-size="8px" fill="#000000" x="68.05178106290347" y="28.51703718911193" font-family="Helvetica Neue, Helvetica, Arial, sans-serif">twowheeler</text></g><g class="relationship" transform="translate(-156.52943613629267 -101.51515793143507) rotate(484.64462759528544)"><path class="b-outline" fill="#A5ABB6" stroke="none" d="M 24.018736134675446,-6.953439040707552 L 24.277555179777966,-5.987513214418485 A 208.8891994287832 208.8891994287832 0 0 1 52.94768615429402,-11.555915016415213 L 52.82611753215696,-12.548498045744083 A 209.8891994287832 209.8891994287832 0 0 0 24.018736134675446,-6.953439040707552 Z M 99.3036408109468,-13.055902978092831 L 99.20377105795414,-12.0609024592803 A 208.8891994287832 208.8891994287832 0 0 1 127.98863706580778,-7.119748987235828 L 127.27562875001065,-4.205710699634899 L 134.90689445617613,-5.941735964976025 L 128.93931482020395,-11.005133370703732 L 128.2263065044068,-8.091095083102804 A 209.8891994287832 209.8891994287832 0 0 0 99.3036408109468,-13.055902978092831"/><text text-anchor="middle" pointer-events="none" font-size="8px" fill="#000000" x="76.05624843269005" y="-10.592763119393965" transform="rotate(180 76.05624843269005 -13.592763119393965)" font-family="Helvetica Neue, Helvetica, Arial, sans-serif">twowheeler</text></g><g class="relationship" transform="translate(-156.52943613629267 -101.51515793143507) rotate(484.64462759528544)"><path class="b-outline" fill="#A5ABB6" stroke="none" d="M 24.018736134675446,6.953439040707552 L 24.277555179777966,5.987513214418485 A 208.8891994287832 208.8891994287832 0 0 0 66.42325545846865,12.764931268023275 L 66.36619744454408,13.763302132505487 A 209.8891994287832 209.8891994287832 0 0 1 24.018736134675446,6.953439040707552 Z M 85.74026669193806,13.974812936057276 L 85.70501853050857,12.975434345574257 A 208.8891994287832 208.8891994287832 0 0 0 127.98863706580778,7.119748987235828 L 127.27562875001065,4.205710699634899 L 134.90689445617613,5.941735964976025 L 128.93931482020395,11.005133370703732 L 128.2263065044068,8.091095083102804 A 209.8891994287832 209.8891994287832 0 0 1 85.74026669193806,13.974812936057276"/><text text-anchor="middle" pointer-events="none" font-size="8px" fill="#000000" x="76.05624843269004" y="16.592763119393965" transform="rotate(180 76.05624843269004 13.592763119393965)" font-family="Helvetica Neue, Helvetica, Arial, sans-serif">trek</text></g><g class="relationship" transform="translate(-247.0268283807192 29.44992216348182) rotate(365.99961452289494)"><path class="b-outline" fill="#A5ABB6" stroke="none" d="M 25 0.5 L 57.21534970724339 0.5 L 57.21534970724339 -0.5 L 25 -0.5 Z M 79.22706845724339 0.5 L 111.44241816448678 0.5 L 111.44241816448678 3.5 L 118.44241816448678 0 L 111.44241816448678 -3.5 L 111.44241816448678 -0.5 L 79.22706845724339 -0.5 Z"/><text text-anchor="middle" pointer-events="none" font-size="8px" fill="#000000" x="68.22120908224339" y="3" font-family="Helvetica Neue, Helvetica, Arial, sans-serif">road</text></g><g class="relationship" transform="translate(-247.0268283807192 29.44992216348182) rotate(365.99961452289494)"><path class="b-outline" fill="#A5ABB6" stroke="none" d="M 21.40063509461097,-12.933012701892217 L 21.90063509461097,-12.06698729810778 A 96.85954400409874 96.85954400409874 0 0 1 58.47476290702298,-24.31539983145163 L 58.35236253531427,-25.307880636810395 A 97.85954400409874 97.85954400409874 0 0 0 21.40063509461097,-12.933012701892217 Z M 77.75036133264945,-25.7620004271797 L 77.67453884326937,-24.764879095493228 A 96.85954400409874 96.85954400409874 0 0 1 114.78177158738146,-14.24139521894731 L 113.4049935440477,-11.57597175927077 L 121.23055600051568,-11.473150361114628 L 116.6174756451598,-17.7952931651827 L 115.24069760182604,-15.12986970550616 A 97.85954400409874 97.85954400409874 0 0 0 77.75036133264945,-25.7620004271797"/><text text-anchor="middle" pointer-events="none" font-size="8px" fill="#000000" x="68.05178106290344" y="-22.51703718911193" font-family="Helvetica Neue, Helvetica, Arial, sans-serif">trek</text></g><g class="relationship" transform="translate(-164.83809440333195 164.367681854841) rotate(361.2270767553481)"><path class="b-outline" fill="#A5ABB6" stroke="none" d="M 25 0.5 L 64.55185935488063 0.5 L 64.55185935488063 -0.5 L 25 -0.5 Z M 83.88779685488063 0.5 L 123.43965620976127 0.5 L 123.43965620976127 3.5 L 130.43965620976127 0 L 123.43965620976127 -3.5 L 123.43965620976127 -0.5 L 83.88779685488063 -0.5 Z"/><text text-anchor="middle" pointer-events="none" font-size="8px" fill="#000000" x="74.21982810488063" y="3" font-family="Helvetica Neue, Helvetica, Arial, sans-serif">trek</text></g><g class="relationship" transform="translate(-247.0268283807192 29.44992216348182) rotate(418.65120736896745)"><path class="b-outline" fill="#A5ABB6" stroke="none" d="M 25 0.5 L 65.82220448841788 0.5 L 65.82220448841788 -0.5 L 25 -0.5 Z M 85.15814198841788 0.5 L 125.98034647683576 0.5 L 125.98034647683576 3.5 L 132.98034647683576 0 L 125.98034647683576 -3.5 L 125.98034647683576 -0.5 L 85.15814198841788 -0.5 Z"/><text text-anchor="middle" pointer-events="none" font-size="8px" fill="#000000" x="75.49017323841788" y="3" font-family="Helvetica Neue, Helvetica, Arial, sans-serif">trek</text></g></g><g class="layer nodes"><g class="node" aria-label="graph-node3" transform="translate(-9.43408440882902,167.69640536952457)"><circle class="b-outline" cx="0" cy="0" r="25" fill="#D9C8AE" stroke="#c0a378" stroke-width="2px"/><text class="caption" text-anchor="middle" pointer-events="none" x="0" y="5" font-size="10px" fill="#2A2C34" font-family="Helvetica Neue, Helvetica, Arial, sans-serif"> Sandakp…</text></g><g class="node" aria-label="graph-node1" transform="translate(120.58273264400273,-59.34584450779239)"><circle class="b-outline" cx="0" cy="0" r="25" fill="#F16667" stroke="#eb2728" stroke-width="2px"/><text class="caption" text-anchor="middle" pointer-events="none" x="0" y="5" font-size="10px" fill="#FFFFFF" font-family="Helvetica Neue, Helvetica, Arial, sans-serif"> Darjeeling</text></g><g class="node" aria-label="graph-node2" transform="translate(79.02886253557195,31.246551763100726)"><circle class="b-outline" cx="0" cy="0" r="25" fill="#57C7E3" stroke="#23b3d7" stroke-width="2px"/><text class="caption" text-anchor="middle" pointer-events="none" x="0" y="5" font-size="10px" fill="#2A2C34" font-family="Helvetica Neue, Helvetica, Arial, sans-serif"> BhikeBh…</text></g><g class="node" aria-label="graph-node7" transform="translate(219.80306509115073,-51.368649206268955)"><circle class="b-outline" cx="0" cy="0" r="25" fill="#57C7E3" stroke="#23b3d7" stroke-width="2px"/><text class="caption" text-anchor="middle" pointer-events="none" x="0" y="5" font-size="10px" fill="#2A2C34" font-family="Helvetica Neue, Helvetica, Arial, sans-serif"> Gairibus</text></g><g class="node" aria-label="graph-node6" transform="translate(146.3992512883051,-193.64367414940327)"><circle class="b-outline" cx="0" cy="0" r="25" fill="#57C7E3" stroke="#23b3d7" stroke-width="2px"/><text class="caption" text-anchor="middle" pointer-events="none" x="0" y="5" font-size="10px" fill="#2A2C34" font-family="Helvetica Neue, Helvetica, Arial, sans-serif"> Tumbling</text></g><g class="node" aria-label="graph-node5" transform="translate(-104.37010191873192,44.442777929653765)"><circle class="b-outline" cx="0" cy="0" r="25" fill="#57C7E3" stroke="#23b3d7" stroke-width="2px"/><text class="caption" text-anchor="middle" pointer-events="none" x="0" y="5" font-size="10px" fill="#2A2C34" font-family="Helvetica Neue, Helvetica, Arial, sans-serif"> Gurdum</text></g><g class="node" aria-label="graph-node4" transform="translate(-156.52943613629267,-101.51515793143507)"><circle class="b-outline" cx="0" cy="0" r="25" fill="#57C7E3" stroke="#23b3d7" stroke-width="2px"/><text class="caption" text-anchor="middle" pointer-events="none" x="0" y="5" font-size="10px" fill="#2A2C34" font-family="Helvetica Neue, Helvetica, Arial, sans-serif"> Sirikhola</text></g><g class="node" aria-label="graph-node0" transform="translate(1.589270519506169,-131.36623151328865)"><circle class="b-outline" cx="0" cy="0" r="25" fill="#F16667" stroke="#eb2728" stroke-width="2px"/><text class="caption" text-anchor="middle" pointer-events="none" x="0" y="5" font-size="10px" fill="#FFFFFF" font-family="Helvetica Neue, Helvetica, Arial, sans-serif"> Rimbik</text></g><g class="node" aria-label="graph-node8" transform="translate(-247.0268283807192,29.44992216348182)"><circle class="b-outline" cx="0" cy="0" r="25" fill="#57C7E3" stroke="#23b3d7" stroke-width="2px"/><text class="caption" text-anchor="middle" pointer-events="none" x="0" y="5" font-size="10px" fill="#2A2C34" font-family="Helvetica Neue, Helvetica, Arial, sans-serif"> Rammam</text></g><g class="node" aria-label="graph-node9" transform="translate(-164.83809440333195,164.367681854841)"><circle class="b-outline" cx="0" cy="0" r="25" fill="#D9C8AE" stroke="#c0a378" stroke-width="2px"/><text class="caption" text-anchor="middle" pointer-events="none" x="0" y="5" font-size="10px" fill="#2A2C34" font-family="Helvetica Neue, Helvetica, Arial, sans-serif"> Sabargr…</text></g></g></svg>